<?xml version="1.0" encoding="utf-8"?>
<!-- Generator: Adobe Illustrator 17.0.2, SVG Export Plug-In . SVG Version: 6.00 Build 0)  -->
<!DOCTYPE svg PUBLIC "-//W3C//DTD SVG 1.1//EN" "http://www.w3.org/Graphics/SVG/1.1/DTD/svg11.dtd">
<svg version="1.1" id="Layer_1" xmlns="http://www.w3.org/2000/svg" xmlns:xlink="http://www.w3.org/1999/xlink" x="0px" y="0px"
	 width="30px" height="30px" viewBox="0 0 30 30" enable-background="new 0 0 30 30" xml:space="preserve">
<g>
	<path fill="#FF7911" d="M22.492,10.826c-3.899,0-6.952,3.329-6.952,6.982c0,0.704,0.13,4.113,3.98,6.405
		c1.426,0.849,1.702,3.124,0.406,4.223c-0.22,0.186-0.218,0.652,0.14,0.652c0.36,0,1.468-0.25,3.098-0.997
		c3.557-1.631,6.371-5.727,6.341-10.203C29.479,13.989,26.391,10.826,22.492,10.826z"/>
	<path fill="#2B61B4" d="M7.508,0.911c3.899,0,6.952,3.329,6.952,6.982c0,0.704-0.13,4.113-3.98,6.405
		c-1.426,0.849-1.702,3.124-0.406,4.223c0.22,0.186,0.218,0.652-0.14,0.652c-0.36,0-1.468-0.25-3.098-0.997
		C3.279,16.546,0.465,12.45,0.495,7.974C0.521,4.074,3.609,0.911,7.508,0.911z"/>
</g>
</svg>
