<?xml version="1.0" encoding="utf-8"?>
<!-- Generator: Adobe Illustrator 17.0.2, SVG Export Plug-In . SVG Version: 6.00 Build 0)  -->
<!DOCTYPE svg PUBLIC "-//W3C//DTD SVG 1.1//EN" "http://www.w3.org/Graphics/SVG/1.1/DTD/svg11.dtd">
<svg version="1.1" id="Layer_1" xmlns="http://www.w3.org/2000/svg" xmlns:xlink="http://www.w3.org/1999/xlink" x="0px" y="0px"
	 width="35px" height="35px" viewBox="0 0 35 35" enable-background="new 0 0 35 35" xml:space="preserve">
<g>
	<path fill="#FF9800" d="M34.312,32.595c0,1.052-0.853,1.905-1.905,1.905H3.218c-1.052,0-1.905-0.853-1.905-1.905V3.405
		c0-1.052,0.853-1.905,1.905-1.905h29.19c1.052,0,1.905,0.853,1.905,1.905V32.595z"/>
	<linearGradient id="SVGID_1_" gradientUnits="userSpaceOnUse" x1="18.9979" y1="18.4483" x2="10.0462" y2="13.28">
		<stop  offset="0" style="stop-color:#FF9800;stop-opacity:0"/>
		<stop  offset="1" style="stop-color:#F15A24;stop-opacity:0.8"/>
	</linearGradient>
	<polygon fill="url(#SVGID_1_)" points="9.729,15.724 16.003,21.835 19.77,17.111 12.261,9.443 	"/>
	<linearGradient id="SVGID_2_" gradientUnits="userSpaceOnUse" x1="31.3945" y1="18.4483" x2="22.4429" y2="13.28">
		<stop  offset="0" style="stop-color:#FF9800;stop-opacity:0"/>
		<stop  offset="1" style="stop-color:#F15A24;stop-opacity:0.8"/>
	</linearGradient>
	<polygon fill="url(#SVGID_2_)" points="22.126,15.724 28.4,21.835 32.167,17.111 24.658,9.443 	"/>
	<ellipse fill="#FFFFFF" cx="10.853" cy="12.416" rx="2.402" ry="3.753"/>
	<ellipse fill="#FFFFFF" cx="23.237" cy="12.416" rx="2.402" ry="3.753"/>
	<g>
		<defs>
			<path id="SVGID_3_" d="M34.312,32.595c0,1.052-0.853,1.905-1.905,1.905H3.218c-1.052,0-1.905-0.853-1.905-1.905V3.405
				c0-1.052,0.853-1.905,1.905-1.905h29.19c1.052,0,1.905,0.853,1.905,1.905V32.595z"/>
		</defs>
		<clipPath id="SVGID_4_">
			<use xlink:href="#SVGID_3_"  overflow="visible"/>
		</clipPath>
		<linearGradient id="SVGID_5_" gradientUnits="userSpaceOnUse" x1="40.7156" y1="42.8502" x2="8.7731" y2="24.4082">
			<stop  offset="0" style="stop-color:#FF9800;stop-opacity:0"/>
			<stop  offset="1" style="stop-color:#F15A24;stop-opacity:0.8"/>
		</linearGradient>
		<path clip-path="url(#SVGID_4_)" fill="url(#SVGID_5_)" d="M7.034,27.421l13.267,12.786l21.402,0.933L27.201,26.798
			c0,0-7.753-6.978-11.701-5.891C13.311,21.51,7.034,27.421,7.034,27.421z"/>
	</g>
	<path fill="#FFFFFF" d="M7.7,27.491c0,0,8.608-13.362,18.517,0c0,0,1.451,0.701,1.251-0.851c0,0-9.709-15.064-20.969-0.1
		C6.499,26.54,6.349,27.841,7.7,27.491z"/>
</g>
</svg>
