<?xml version="1.0" encoding="utf-8"?>
<!-- Generator: Adobe Illustrator 17.0.2, SVG Export Plug-In . SVG Version: 6.00 Build 0)  -->
<!DOCTYPE svg PUBLIC "-//W3C//DTD SVG 1.1//EN" "http://www.w3.org/Graphics/SVG/1.1/DTD/svg11.dtd">
<svg version="1.1" id="Layer_1" xmlns="http://www.w3.org/2000/svg" xmlns:xlink="http://www.w3.org/1999/xlink" x="0px" y="0px"
	 width="42.375px" height="52.75px" viewBox="0 0 42.375 52.75" enable-background="new 0 0 42.375 52.75" xml:space="preserve">
<g>
	<ellipse opacity="0.3" fill="#1A1A1A" cx="21.33" cy="50.192" rx="19.472" ry="1.957"/>
	<ellipse opacity="0.6" fill="#1A1A1A" cx="21.33" cy="50.192" rx="13.69" ry="1.957"/>
	<g>
		<path fill="#FF9800" d="M33.487,3.649H9.172c-4.79,0-8.672,3.882-8.672,8.672v20.235c0,4.787,4.081,8.575,7.982,8.575l6.472,9.549
			l6.561-9.452h11.972c4.787,0,8.672-3.885,8.672-8.672V12.321C42.159,7.531,38.274,3.649,33.487,3.649z"/>
		<path fill="#F7F7F7" d="M33.487,0.529H9.172c-4.79,0-8.672,3.882-8.672,8.672v20.235c0,4.787,3.882,8.672,8.672,8.672l5.781,8.672
			l5.781-8.672h12.752c4.787,0,8.672-3.885,8.672-8.672V9.201C42.159,4.411,38.274,0.529,33.487,0.529z"/>
	</g>
</g>
</svg>
