<?xml version="1.0" encoding="utf-8"?>
<!-- Generator: Adobe Illustrator 17.0.2, SVG Export Plug-In . SVG Version: 6.00 Build 0)  -->
<!DOCTYPE svg PUBLIC "-//W3C//DTD SVG 1.1//EN" "http://www.w3.org/Graphics/SVG/1.1/DTD/svg11.dtd">
<svg version="1.1" id="Layer_1" xmlns="http://www.w3.org/2000/svg" xmlns:xlink="http://www.w3.org/1999/xlink" x="0px" y="0px"
	 width="35px" height="35px" viewBox="0 0 35 35" enable-background="new 0 0 35 35" xml:space="preserve">
<g>
	<path fill="#FF9800" d="M34.312,32.595c0,1.052-0.853,1.905-1.905,1.905H3.218c-1.052,0-1.905-0.853-1.905-1.905V3.405
		c0-1.052,0.853-1.905,1.905-1.905h29.19c1.052,0,1.905,0.853,1.905,1.905V32.595z"/>
	<linearGradient id="SVGID_1_" gradientUnits="userSpaceOnUse" x1="19.3104" y1="18.1573" x2="10.3587" y2="12.9891">
		<stop  offset="0" style="stop-color:#FF9800;stop-opacity:0"/>
		<stop  offset="1" style="stop-color:#F15A24;stop-opacity:0.8"/>
	</linearGradient>
	<polygon fill="url(#SVGID_1_)" points="10.041,15.433 16.316,21.544 20.083,16.82 12.574,9.152 	"/>
	<linearGradient id="SVGID_2_" gradientUnits="userSpaceOnUse" x1="31.707" y1="18.1573" x2="22.7554" y2="12.9891">
		<stop  offset="0" style="stop-color:#FF9800;stop-opacity:0"/>
		<stop  offset="1" style="stop-color:#F15A24;stop-opacity:0.8"/>
	</linearGradient>
	<polygon fill="url(#SVGID_2_)" points="22.438,15.433 28.712,21.544 32.479,16.82 24.971,9.152 	"/>
	<ellipse fill="#FFFFFF" cx="11.166" cy="12.125" rx="2.402" ry="3.753"/>
	<ellipse fill="#FFFFFF" cx="23.55" cy="12.125" rx="2.402" ry="3.753"/>
	<g>
		<defs>
			<path id="SVGID_3_" d="M34.312,32.595c0,1.052-0.853,1.905-1.905,1.905H3.218c-1.052,0-1.905-0.853-1.905-1.905V3.405
				c0-1.052,0.853-1.905,1.905-1.905h29.19c1.052,0,1.905,0.853,1.905,1.905V32.595z"/>
		</defs>
		<clipPath id="SVGID_4_">
			<use xlink:href="#SVGID_3_"  overflow="visible"/>
		</clipPath>
		<linearGradient id="SVGID_5_" gradientUnits="userSpaceOnUse" x1="40.3488" y1="36.8706" x2="11.4374" y2="20.1785">
			<stop  offset="0" style="stop-color:#FF9800;stop-opacity:0"/>
			<stop  offset="1" style="stop-color:#F15A24;stop-opacity:0.8"/>
		</linearGradient>
		<path clip-path="url(#SVGID_4_)" fill="url(#SVGID_5_)" d="M9.406,23.697l13.267,12.786l19.342-2.499L27.513,19.642
			c0,0-5.629,6.097-7.941,6.615C17.358,26.753,9.406,23.697,9.406,23.697z"/>
	</g>
	<path fill="#FFFFFF" d="M8.013,19.782c0,0,8.608,13.362,18.517,0c0,0,1.451-0.701,1.251,0.851c0,0-9.709,15.064-20.969,0.1
		C6.812,20.733,6.662,19.432,8.013,19.782z"/>
</g>
</svg>
