<?xml version="1.0" encoding="utf-8"?>
<!-- Generator: Adobe Illustrator 17.0.2, SVG Export Plug-In . SVG Version: 6.00 Build 0)  -->
<!DOCTYPE svg PUBLIC "-//W3C//DTD SVG 1.1//EN" "http://www.w3.org/Graphics/SVG/1.1/DTD/svg11.dtd">
<svg version="1.1" id="Layer_1" xmlns="http://www.w3.org/2000/svg" xmlns:xlink="http://www.w3.org/1999/xlink" x="0px" y="0px"
	 width="65px" height="66.125px" viewBox="0 0 65 66.125" enable-background="new 0 0 65 66.125" xml:space="preserve">
<g>
	<path fill="#B3B3B3" d="M40.543,14.153c-0.817-0.265-1.691,0.175-1.961,0.987l-5.95,18.012L14.645,23.49
		c-0.379-0.204-0.847-0.06-1.051,0.318c-0.202,0.376-0.061,0.847,0.318,1.051l18.318,9.84c0.001,0.034,0,0.068,0.003,0.101
		c0.004,0.046,0.016,0.089,0.024,0.133c0.01,0.054,0.019,0.108,0.034,0.16c0.014,0.048,0.035,0.092,0.054,0.138
		c0.019,0.047,0.036,0.094,0.06,0.139c0.023,0.043,0.052,0.083,0.078,0.124c0.028,0.042,0.054,0.086,0.086,0.126
		c0.03,0.037,0.065,0.07,0.098,0.104c0.036,0.037,0.07,0.076,0.111,0.11c0.038,0.032,0.082,0.06,0.124,0.089
		c0.04,0.028,0.08,0.058,0.123,0.082c0.049,0.027,0.103,0.048,0.156,0.069c0.037,0.016,0.07,0.036,0.109,0.049
		c0.005,0.002,0.009,0.001,0.014,0.002c0.107,0.034,0.216,0.059,0.332,0.069l11.399,1.034c0.048,0.004,0.095,0.006,0.143,0.006
		c0.793,0,1.47-0.606,1.543-1.411c0.077-0.853-0.551-1.608-1.405-1.686l-9.453-0.857l5.669-17.164
		C41.799,15.3,41.356,14.423,40.543,14.153z"/>
	<path fill="#B3B3B3" d="M25.574,62.618c0.112,0.011,0.223,0.018,0.334,0.018c1.565,0,2.911-1.181,3.081-2.773
		c0.182-1.704-1.052-3.233-2.755-3.416C15.921,55.342,7.209,44.685,7.209,33.175c0-10.636,7.445-20.526,16.713-22.841v2.097
		c0,1.195,0.685,1.478,1.53,0.634l6.459-4.391c0.845-0.845,0.845-2.215,0-3.06l-6.459-4.39c-0.845-0.845-1.53-0.562-1.53,0.634
		v2.122C11.337,6.292,1.003,19.248,1.003,33.175C1.003,47.707,12.254,61.191,25.574,62.618z"/>
	<path fill="#B3B3B3" d="M39.52,3.731c-1.69-0.17-3.233,1.051-3.416,2.755c-0.182,1.704,1.052,3.233,2.755,3.416
		c10.314,1.105,19.028,11.761,19.028,23.272c0,10.773-7.633,20.796-17.069,22.942v-2.388c0-1.195-0.685-1.479-1.53-0.634
		l-6.459,4.391c-0.845,0.845-0.845,2.215,0,3.06l6.459,4.391c0.845,0.845,1.53,0.562,1.53-0.634v-1.863
		c12.745-2.131,23.275-15.206,23.275-29.263C64.093,18.642,52.841,5.159,39.52,3.731z"/>
</g>
</svg>
